# xmcd
#
# Track frame offsets: 
#        150
#        27043
#        42741
#        67648
#        82726
#        99798
#        116891
#        135413
#        153441
#        176609
#        196974
#        215030
#        232385
#        249048
#        275696
#        292381
#        308889
#        329253
#
# Disc length: 4560 seconds
#
# Revision: 0
# Processed by: cddbd v1.5.2PL0 Copyright (c) Steve Scherf et al.
# Submitted via: ExactAudioCopy v1.1
#
DISCID=0211ce12
DTITLE=Various Artist - Het Beste Uit de Q Top 1000 Editie 2018 - CD 1
DYEAR=2018
DGENRE=Top 40
TTITLE0=Michael Jackson - Thriller
TTITLE1=Guus Meeuwis - Brabant
TTITLE2=Meat Loaf - Paradise By The Dashboard Light
TTITLE3=George Ezra - Shotgun
TTITLE4=Acda and De Munnik - Het Regent Zonnestralen
TTITLE5=Kensington - Sorry
TTITLE6=The Black Eyed Peas - I Gotta Feeling
TTITLE7=Marco Borsato - Afscheid Nemen Bestaat Niet
TTITLE8=The Cranberries - Zombie
TTITLE9=Whitney Houston - I Will Always Love You
TTITLE10=Gigi D'Agostino - L' Amour Toujours
TTITLE11=Within Temptation - Ice Queen
TTITLE12=De Jeugd Van Tegenwoordig - Sterrenstof
TTITLE13=Falco - Jeanny
TTITLE14=Martin Garrix and Dua Lipa - Scared To Be Lonely
TTITLE15=André Hazes Jr. - Leef
TTITLE16=Evanescence - My Immortal
TTITLE17=Wildstylez Feat. Niels Geusebroek - Year Of Summer
EXTD=
EXTT0=
EXTT1=
EXTT2=
EXTT3=
EXTT4=
EXTT5=
EXTT6=
EXTT7=
EXTT8=
EXTT9=
EXTT10=
EXTT11=
EXTT12=
EXTT13=
EXTT14=
EXTT15=
EXTT16=
EXTT17=
PLAYORDER=
